<?xml version="1.0" standalone="no"?>
<!DOCTYPE svg PUBLIC "-//W3C//DTD SVG 20010904//EN"
 "http://www.w3.org/TR/2001/REC-SVG-20010904/DTD/svg10.dtd">
<svg version="1.0" xmlns="http://www.w3.org/2000/svg"
 width="700.000000pt" height="700.000000pt" viewBox="0 0 700.000000 700.000000"
 preserveAspectRatio="xMidYMid meet">
<metadata>
Created by potrace 1.11, written by Peter Selinger 2001-2013
</metadata>
<g transform="translate(0.000000,700.000000) scale(0.100000,-0.100000)"
fill="#000000" stroke="none">
<path d="M3205 6985 c-55 -8 -125 -19 -155 -26 -30 -7 -59 -13 -65 -15 -87
-17 -192 -54 -315 -109 -419 -186 -703 -525 -745 -890 -3 -22 -5 -288 -6 -590
-1 -607 -2 -600 61 -645 64 -46 163 -21 200 50 17 33 18 75 19 590 0 321 4
576 10 605 59 301 326 555 721 684 52 17 109 33 125 36 17 3 66 13 110 21 50
10 148 17 265 19 158 3 205 -1 324 -21 488 -84 850 -354 942 -704 15 -57 18
-132 19 -630 1 -374 6 -574 13 -591 13 -32 67 -79 93 -80 69 -5 87 0 122 31
21 18 38 45 44 67 10 45 10 1117 -1 1183 -8 49 -32 144 -45 175 -60 150 -136
267 -244 377 -92 94 -121 118 -226 188 -201 132 -430 221 -671 260 -41 7 -84
14 -95 17 -53 11 -408 10 -500 -2z"/>
<path d="M632 5260 c-25 -11 -47 -31 -59 -52 -17 -31 -18 -150 -19 -2548 -1
-1613 2 -2529 8 -2555 11 -42 45 -80 85 -96 35 -13 5674 -12 5709 1 37 14 71
53 82 93 5 17 8 1160 7 2552 0 2405 -1 2522 -18 2553 -12 22 -34 40 -60 52
-39 17 -79 18 -537 18 -551 0 -551 0 -591 -65 -43 -69 -18 -161 54 -196 33
-17 72 -19 454 -20 l418 -2 1 -2357 0 -2358 -2666 0 -2666 0 0 2358 1 2357
397 2 c438 1 433 1 482 66 28 38 28 116 1 153 -47 63 -38 62 -563 62 -444 0
-481 -1 -520 -18z"/>
<path d="M2403 5259 c-100 -49 -100 -193 0 -242 36 -18 86 -19 1027 -19 l989
0 35 21 c98 61 80 216 -28 250 -19 6 -403 10 -1008 9 -938 0 -979 -1 -1015
-19z"/>
<path d="M1813 4600 c-110 -24 -144 -144 -80 -284 103 -225 401 -279 576 -105
53 53 98 145 105 218 14 125 -86 208 -192 161 -48 -22 -72 -55 -83 -117 -11
-56 -30 -79 -71 -85 -38 -6 -88 32 -88 68 0 91 -83 162 -167 144z"/>
<path d="M4603 4598 c-49 -10 -102 -64 -104 -106 -6 -107 23 -191 92 -266 139
-152 361 -159 512 -17 64 60 98 132 110 233 5 40 -19 103 -49 129 -71 61 -198
25 -219 -61 -24 -96 -26 -102 -57 -115 -42 -17 -84 -2 -104 36 -8 16 -14 31
-14 34 1 41 -5 60 -29 88 -37 41 -82 56 -138 45z"/>
</g>
</svg>
